<svg width="51" height="50" viewBox="0 0 51 50" fill="none" xmlns="http://www.w3.org/2000/svg">
<path d="M25 4.50436C31.6757 4.50436 32.4657 4.53016 35.1024 4.65024C37.5397 4.76139 38.8635 5.16826 39.7448 5.51063C40.9118 5.96415 41.7444 6.50599 42.6197 7.38027C43.495 8.25555 44.0368 9.08816 44.4893 10.2552C44.8317 11.1364 45.2386 12.4603 45.3497 14.8975C45.4698 17.5333 45.4956 18.3242 45.4956 25C45.4956 31.6757 45.4698 32.4656 45.3497 35.1024C45.2386 37.5397 44.8317 38.8635 44.4893 39.7447C44.0358 40.9118 43.494 41.7444 42.6197 42.6196C41.7444 43.4949 40.9118 44.0368 39.7448 44.4893C38.8635 44.8316 37.5397 45.2385 35.1024 45.3497C32.4667 45.4697 31.6757 45.4956 25 45.4956C18.3243 45.4956 17.5333 45.4697 14.8976 45.3497C12.4603 45.2385 11.1365 44.8316 10.2552 44.4893C9.0882 44.0358 8.2556 43.4939 7.38032 42.6196C6.50504 41.7444 5.9632 40.9118 5.51068 39.7447C5.16831 38.8635 4.76143 37.5397 4.65029 35.1024C4.53021 32.4666 4.50441 31.6757 4.50441 25C4.50441 18.3242 4.53021 17.5343 4.65029 14.8975C4.76143 12.4603 5.16831 11.1364 5.51068 10.2552C5.96419 9.08816 6.50603 8.25555 7.38032 7.38027C8.2546 6.505 9.0882 5.96316 10.2552 5.51063C11.1365 5.16826 12.4603 4.76139 14.8976 4.65024C17.5333 4.53016 18.3243 4.50436 25 4.50436M25 -4.52192e-05C18.2101 -4.52192e-05 17.3587 0.0287338 14.6922 0.150796C12.0316 0.271866 10.2136 0.69462 8.62377 1.31287C6.9794 1.95196 5.58511 2.8064 4.19578 4.19672C2.80545 5.58705 1.95102 6.98035 1.31192 8.62472C0.694665 10.2145 0.271912 12.0316 0.150842 14.6921C0.028779 17.3586 0 18.2101 0 25C0 31.7898 0.028779 32.6413 0.150842 35.3078C0.271912 37.9684 0.694665 39.7864 1.31292 41.3762C1.95201 43.0206 2.80645 44.4148 4.19677 45.8042C5.58709 47.1945 6.98039 48.0489 8.62476 48.688C10.2146 49.3063 12.0326 49.729 14.6932 49.8501C17.3597 49.9722 18.2111 50.0009 25.001 50.0009C31.7908 50.0009 32.6423 49.9722 35.3088 49.8501C37.9694 49.729 39.7874 49.3063 41.3772 48.688C43.0216 48.0489 44.4159 47.1945 45.8052 45.8042C47.1955 44.4139 48.05 43.0206 48.6891 41.3762C49.3073 39.7864 49.7301 37.9684 49.8511 35.3078C49.9732 32.6413 50.002 31.7898 50.002 25C50.002 18.2101 49.9732 17.3586 49.8511 14.6921C49.7301 12.0316 49.3073 10.2135 48.6891 8.62372C48.05 6.97935 47.1955 5.58506 45.8052 4.19573C44.4149 2.80541 43.0216 1.95097 41.3772 1.31188C39.7874 0.693627 37.9694 0.270874 35.3088 0.149804C32.6423 0.0277414 31.7908 -0.0010376 25.001 -0.0010376L25 -4.52192e-05Z" fill="#545454"/>
<path d="M25 12.1626C17.9095 12.1626 12.1626 17.9105 12.1626 25C12.1626 32.0896 17.9105 37.8374 25 37.8374C32.0896 37.8374 37.8374 32.0896 37.8374 25C37.8374 17.9105 32.0896 12.1626 25 12.1626V12.1626ZM25 33.334C20.3974 33.334 16.667 29.6027 16.667 25.001C16.667 20.3993 20.3983 16.668 25 16.668C29.6017 16.668 33.333 20.3993 33.333 25.001C33.333 29.6027 29.6017 33.334 25 33.334Z" fill="#545454"/>
<path d="M38.3457 14.6545C40.0025 14.6545 41.3456 13.3113 41.3456 11.6545C41.3456 9.99767 40.0025 8.65454 38.3457 8.65454C36.6888 8.65454 35.3457 9.99767 35.3457 11.6545C35.3457 13.3113 36.6888 14.6545 38.3457 14.6545Z" fill="#545454"/>
</svg>
