<svg width="15" height="15" viewBox="0 0 15 15" fill="none" xmlns="http://www.w3.org/2000/svg">
<path d="M13.8949 6.43464e-05H1.10508C0.961546 -0.00145001 0.819091 0.0237766 0.685872 0.0745395C0.552652 0.125303 0.431271 0.200694 0.328654 0.296005C0.226036 0.391316 0.144202 0.504677 0.0878118 0.630024C0.0314214 0.75537 0.00157728 0.890182 0 1.02648V13.3087C0.00157728 13.445 0.0314214 13.5798 0.0878118 13.7052C0.144202 13.8305 0.226036 13.9439 0.328654 14.0392C0.431271 14.1345 0.552652 14.2099 0.685872 14.2607C0.819091 14.3114 0.961546 14.3367 1.10508 14.3351H13.8949C14.0385 14.3367 14.1809 14.3114 14.3141 14.2607C14.4474 14.2099 14.5687 14.1345 14.6713 14.0392C14.774 13.9439 14.8558 13.8305 14.9122 13.7052C14.9686 13.5798 14.9984 13.445 15 13.3087V1.02648C14.9984 0.890182 14.9686 0.75537 14.9122 0.630024C14.8558 0.504677 14.774 0.391316 14.6713 0.296005C14.5687 0.200694 14.4474 0.125303 14.3141 0.0745395C14.1809 0.0237766 14.0385 -0.00145001 13.8949 6.43464e-05ZM4.5471 12.0015H2.28261V5.52775H4.5471V12.0015ZM3.41185 4.64469C3.17765 4.62796 2.95366 4.54664 2.76731 4.4109C2.58097 4.27516 2.44036 4.0908 2.36268 3.88033C2.285 3.66987 2.27362 3.44252 2.32995 3.22602C2.38628 3.00951 2.50787 2.81319 2.67983 2.66129C2.8518 2.5094 3.06667 2.40839 3.29815 2.37067C3.52963 2.33295 3.76768 2.3603 3.98313 2.44907C4.19859 2.53783 4.38211 2.68416 4.51124 2.87044C4.64037 3.05672 4.7095 3.27487 4.71016 3.49788C4.71063 3.656 4.67664 3.81255 4.61037 3.95761C4.54409 4.10267 4.44694 4.23293 4.32502 4.34062C4.2031 4.44832 4.05903 4.53107 3.90188 4.58337C3.74473 4.63567 3.5779 4.65655 3.41185 4.64469ZM12.7174 12.0015H10.4529V8.56107C10.4529 7.6895 10.1208 7.09873 9.30556 7.09873C9.04854 7.09485 8.79694 7.16911 8.58733 7.31039C8.37772 7.45168 8.22104 7.65269 8.14011 7.88436C8.08278 8.05267 8.05823 8.22958 8.06764 8.40624V12.0245H5.80315C5.80315 12.0245 5.83334 6.15851 5.80315 5.55071H8.06764V6.46793C8.27238 6.12932 8.57082 5.8506 8.93061 5.66158C9.29041 5.47256 9.69783 5.38068 10.1087 5.39588C11.6003 5.39588 12.7174 6.32483 12.7174 8.30881V12.0015Z" fill="white"/>
</svg>
