<svg width="41" height="30" viewBox="0 0 41 30" fill="none" xmlns="http://www.w3.org/2000/svg">
<path fill-rule="evenodd" clip-rule="evenodd" d="M36.5191 1.36541C38.2867 1.84276 39.676 3.23558 40.1456 5.00113C41 8.20528 41 14.8948 41 14.8948C41 14.8948 41 21.5842 40.1456 24.7884C39.6694 26.5605 38.2801 27.9533 36.5191 28.4241C33.3231 29.2807 20.5 29.2807 20.5 29.2807C20.5 29.2807 7.68342 29.2807 4.48091 28.4241C2.71333 27.9467 1.32405 26.5539 0.854438 24.7884C0 21.5842 0 14.8948 0 14.8948C0 14.8948 0 8.20528 0.854438 5.00113C1.33058 3.22904 2.71985 1.83622 4.48091 1.36541C7.68342 0.508789 20.5 0.508789 20.5 0.508789C20.5 0.508789 33.3231 0.508789 36.5191 1.36541ZM27.0551 14.8948L16.4039 21.0611V8.72841L27.0551 14.8948Z" fill="#545454"/>
</svg>
