<svg width="50" height="39" viewBox="0 0 50 39" fill="none" xmlns="http://www.w3.org/2000/svg">
<path d="M6.69911 16.6369C9.95993 16.6369 13.1098 14.9954 13.1098 11.5571C13.1098 8.34061 10.337 7.54204 8.69553 7.09839L5.92272 6.34419C4.90233 6.078 3.7932 5.67871 3.7932 4.63614C3.7932 3.50483 5.12415 2.79499 6.54383 2.83936C7.98569 2.88372 9.36101 3.70447 9.71593 5.25725L12.9767 4.70269C12.2004 1.70805 9.89339 0.0665466 6.5882 0.0221822C3.30519 0 0.621109 1.57496 0.621109 4.79141C0.621109 7.83041 2.99463 8.6068 4.23685 8.96172L8.38498 10.1818C9.6272 10.5589 9.93775 11.1356 9.93775 11.7789C9.93775 13.1098 8.38498 13.8197 6.89875 13.8197C5.12415 13.8197 3.59356 12.7993 3.14991 10.9581L0 11.424C0.488015 14.6626 3.14991 16.6369 6.69911 16.6369Z" fill="#545454"/>
<path d="M18.7863 2.6619V0H15.7695V2.6619H18.7863ZM18.7863 16.3041V4.32558H15.7695V16.3041H18.7863Z" fill="#545454"/>
<path d="M29.2985 6.65474V4.32558H25.8381V0.998211H22.8213V4.32558H20.7805V6.65474H22.8213V11.2243C22.8213 12.6662 22.7104 13.731 23.3093 14.8179C24.2853 16.5703 26.8141 16.77 29.2985 16.3041V13.7975C27.8789 13.9971 26.6145 14.0415 26.0821 13.1986C25.7937 12.7549 25.8381 11.9785 25.8381 11.0469V6.65474H29.2985Z" fill="#545454"/>
<path d="M35.2065 2.6619V0H32.1897V2.6619H35.2065ZM35.2065 16.3041V4.32558H32.1897V16.3041H35.2065Z" fill="#545454"/>
<path d="M43.922 16.6369C47.5156 16.6369 50 14.0415 50 10.3149C50 6.61038 47.5377 3.99285 43.922 3.99285C40.3728 3.99285 37.8662 6.56601 37.8662 10.3149C37.8662 14.0193 40.3063 16.6369 43.922 16.6369ZM43.922 13.8197C42.0365 13.8197 41.0605 12.4666 41.0605 10.3149C41.0605 8.2297 41.9478 6.81002 43.922 6.81002C45.8297 6.81002 46.8057 8.18533 46.8057 10.3149C46.8057 12.3778 45.8519 13.8197 43.922 13.8197Z" fill="#545454"/>
<path d="M8.89379 38.4866L11.9882 27.7059L15.0827 38.4866H18.0552L22.7357 22.5152H19.5636L16.5689 33.4955L13.5743 22.5152L10.4022 22.5374L7.40756 33.4955L4.41293 22.5152H1.24083L5.92134 38.4866H8.89379Z" fill="#545454"/>
<path d="M34.186 33.3403C34.552 28.9925 32.3559 26.1753 28.5849 26.1753C25.0357 26.1753 22.5291 28.7263 22.5291 32.6526C22.5291 36.2462 25.0801 38.8193 28.7624 38.8193C31.0693 38.8193 33.1767 37.5549 34.0862 35.3589L31.0693 34.4938C30.6257 35.4698 29.7606 36.0022 28.5849 36.0022C26.9545 36.0022 26.0006 35.0483 25.7788 33.3403H34.186ZM28.718 28.7929C30.1709 28.7929 30.9251 29.4805 31.1359 31.0998H25.8564C26.167 29.5803 27.0987 28.7929 28.718 28.7929Z" fill="#545454"/>
<path d="M42.4134 26.1753C41.3598 26.1753 40.4503 26.4415 39.7072 26.9073V22.5152H36.6682V38.4866H39.3301V37.7989C40.173 38.4422 41.2488 38.8193 42.5687 38.8193C45.8739 38.8193 48.0921 36.0909 48.0921 32.4973C48.0921 28.8372 45.8517 26.1753 42.4134 26.1753ZM42.0807 36.1353C40.0621 36.1353 39.3301 34.6712 39.3301 32.4973C39.3301 30.3234 40.0843 28.8594 41.9698 28.8594C43.9884 28.8594 44.8979 30.5009 44.8979 32.4973C44.8979 34.5159 44.0327 36.1353 42.0807 36.1353Z" fill="#545454"/>
</svg>
