<svg width="15" height="13" viewBox="0 0 15 13" fill="none" xmlns="http://www.w3.org/2000/svg">
<path d="M13.4679 3.78891C13.4771 3.91376 13.4771 4.03977 13.4771 4.16578C13.4771 8.02352 10.3813 12.4714 4.72048 12.4714C3.04687 12.4737 1.40801 12.0186 0 11.1605C0.242698 11.1879 0.48688 11.2018 0.731291 11.2021C2.11743 11.2036 3.46378 10.7626 4.55351 9.95008C3.91153 9.93851 3.28942 9.73689 2.77421 9.37342C2.25901 9.00994 1.87648 8.5028 1.68014 7.92295C2.1412 8.00744 2.61656 7.99043 3.06959 7.87324C2.37317 7.73974 1.74685 7.38192 1.2968 6.86044C0.846754 6.33897 0.60067 5.68592 0.600268 5.01201V4.97502C1.02834 5.20101 1.50734 5.32629 1.99703 5.34033C1.34553 4.92747 0.884368 4.29464 0.707413 3.57066C0.530459 2.84668 0.651008 2.08594 1.04453 1.44328C1.81722 2.34506 2.78122 3.08264 3.87393 3.60813C4.96665 4.13362 6.16366 4.43528 7.38726 4.49352C7.23423 3.86777 7.30287 3.21162 7.58256 2.62659C7.86226 2.04156 8.33741 1.56026 8.93451 1.25714C9.53162 0.954027 10.2174 0.845991 10.8857 0.94975C11.5541 1.05351 12.1678 1.36328 12.6318 1.83114C13.3209 1.70217 13.9816 1.46251 14.5856 1.12248C14.356 1.79842 13.8752 2.37217 13.2327 2.7369C13.8427 2.66851 14.4384 2.51381 15 2.27795C14.5877 2.86371 14.069 3.37532 13.4679 3.78891Z" fill="white"/>
</svg>
