<svg width="15" height="16" viewBox="0 0 15 16" fill="none" xmlns="http://www.w3.org/2000/svg">
<path d="M7.49999 2.24571C9.51042 2.24571 9.74518 2.24576 10.5397 2.29163C11.017 2.29261 11.4902 2.37598 11.9362 2.53801C12.2616 2.65506 12.5572 2.83706 12.8031 3.07138C13.0491 3.30569 13.2399 3.58702 13.3628 3.89704C13.5328 4.3221 13.6224 4.77266 13.6276 5.2275C13.6637 5.98439 13.6697 6.2079 13.6697 8.12306C13.6697 10.0382 13.6697 10.2617 13.6276 11.0186C13.6224 11.4735 13.5328 11.924 13.3628 12.3491C13.2399 12.6591 13.0491 12.9404 12.8031 13.1747C12.5572 13.4091 12.2616 13.591 11.9362 13.7081C11.4902 13.8701 11.017 13.9535 10.5397 13.9545C9.74518 13.9946 9.51042 14.0004 7.49999 14.0004C5.48956 14.0004 5.25481 14.0004 4.49036 13.9545C4.01304 13.9535 3.53989 13.8701 3.09391 13.7081C2.76847 13.591 2.47292 13.4091 2.22695 13.1747C1.98098 12.9404 1.7902 12.6591 1.66733 12.3491C1.49723 11.9242 1.40954 11.4733 1.4085 11.0186C1.37239 10.2617 1.36036 10.0382 1.36036 8.12306C1.36036 6.2079 1.36035 5.98439 1.4085 5.2275C1.40954 4.7728 1.49723 4.32188 1.66733 3.89704C1.7902 3.58702 1.98098 3.30569 2.22695 3.07138C2.47292 2.83706 2.76847 2.65506 3.09391 2.53801C3.53989 2.37598 4.01304 2.29261 4.49036 2.29163C5.2849 2.25149 5.51965 2.24571 7.49999 2.24571ZM7.49999 0.955566C5.45946 0.955566 5.20064 0.955611 4.40008 1.00148C3.7829 1.01568 3.17256 1.12813 2.5943 1.3341C2.09543 1.51821 1.64237 1.79939 1.26407 2.15976C0.885764 2.52013 0.590547 2.95172 0.397273 3.42695C0.181058 3.9778 0.063067 4.55922 0.0481644 5.14715C0.00602954 5.90977 0 6.15627 0 8.1001C0 10.0439 1.02855e-05 10.2904 0.0481644 11.053C0.063067 11.641 0.181058 12.2224 0.397273 12.7732C0.590547 13.2485 0.885764 13.6801 1.26407 14.0404C1.64237 14.4008 2.09543 14.682 2.5943 14.8661C3.17256 15.0721 3.7829 15.1845 4.40008 15.1987C5.20064 15.2389 5.45946 15.2446 7.49999 15.2446C9.54052 15.2446 9.79936 15.2446 10.5999 15.1987C11.2171 15.1845 11.8274 15.0721 12.4057 14.8661C12.9046 14.682 13.3576 14.4008 13.7359 14.0404C14.1142 13.6801 14.4095 13.2485 14.6027 12.7732C14.8189 12.2224 14.9369 11.641 14.9518 11.053C14.994 10.2904 15 10.0439 15 8.1001C15 6.15627 15 5.90977 14.9518 5.14715C14.9369 4.55922 14.8189 3.9778 14.6027 3.42695C14.4095 2.95172 14.1142 2.52013 13.7359 2.15976C13.3576 1.79939 12.9046 1.51821 12.4057 1.3341C11.8274 1.12813 11.2171 1.01568 10.5999 1.00148C9.79936 0.961345 9.54052 0.955566 7.49999 0.955566Z" fill="white"/>
<path d="M7.5 4.44188C6.7357 4.44188 5.98857 4.65782 5.35308 5.06231C4.71759 5.46681 4.22228 6.04154 3.92979 6.7142C3.63731 7.38685 3.56079 8.12712 3.70989 8.8412C3.859 9.55529 4.22705 10.2112 4.76749 10.726C5.30793 11.2409 5.99649 11.5916 6.7461 11.7337C7.49572 11.8757 8.27272 11.8026 8.97884 11.524C9.68496 11.2454 10.2885 10.7737 10.7131 10.1683C11.1377 9.56294 11.3644 8.85113 11.3644 8.12306C11.3644 7.14673 10.9572 6.21044 10.2325 5.52008C9.50782 4.82972 8.52489 4.44188 7.5 4.44188ZM7.5 10.5141C7.00356 10.5141 6.51828 10.3739 6.10551 10.1112C5.69274 9.84846 5.37101 9.47494 5.18104 9.03803C4.99106 8.60112 4.94135 8.12043 5.0382 7.65661C5.13505 7.19279 5.3741 6.76665 5.72514 6.43226C6.07617 6.09786 6.52343 5.8702 7.01033 5.77794C7.49722 5.68568 8.0019 5.73304 8.46055 5.91401C8.9192 6.09499 9.3112 6.40134 9.58701 6.79455C9.86281 7.18776 10.01 7.65015 10.01 8.12306C10.01 8.75721 9.74558 9.36544 9.27486 9.81386C8.80414 10.2623 8.1657 10.5141 7.5 10.5141Z" fill="white"/>
<path d="M11.5148 5.15858C12.0135 5.15858 12.4177 4.7735 12.4177 4.29848C12.4177 3.82346 12.0135 3.43839 11.5148 3.43839C11.0162 3.43839 10.612 3.82346 10.612 4.29848C10.612 4.7735 11.0162 5.15858 11.5148 5.15858Z" fill="white"/>
</svg>
