<?xml version="1.0" encoding="UTF-8"?><svg id="Layer_2" xmlns="http://www.w3.org/2000/svg" viewBox="0 0 35.06 57.97"><defs><style>.cls-1{fill:#fff;}</style></defs><g id="Layer_1-2"><g><path class="cls-1" d="M0,26.71C0,17.01,7.93,9.12,17.72,9.22c9.56,.1,17.33,7.86,17.33,17.5,0,9.74-7.97,17.6-17.75,17.48C7.74,44.09,0,36.32,0,26.71Zm32.73,.01c-.02-8.5-6.96-15.27-15.39-15.17-8.38,.1-15.16,6.99-15.02,15.44,.14,8.32,7.01,15.05,15.44,14.92,8.18-.12,14.96-6.76,14.97-15.19Z"/><path class="cls-1" d="M35.01,47.9v2.26c-.12,.03-34.7,.04-34.96,.01v-2.28H35.01Z"/><path class="cls-1" d="M4.39,2.44v1.04H1.48c-.04,.13-.05,1.28-.02,1.49h3.27c.01,.38,0,.75,0,1.13H.12C.09,5.98,.08,.24,.11,.03,.23,0,4.47-.01,4.65,.02V1.13c-.36,0-.71,0-1.07,0-.35,0-.7,0-1.05,0s-.71,0-1.06,0c-.04,.14-.04,1.13,0,1.3h2.92Z"/><path class="cls-1" d="M9.53,6.1h-1.22c0-.06,0-.12,0-.18,0-.79,0-1.58,0-2.38,0-.18-.01-.36-.05-.54-.06-.29-.23-.44-.53-.47-.49-.06-.88,.23-.95,.73-.02,.1-.02,.21-.02,.32,0,.77,0,1.54,0,2.31v.2h-1.21V1.7h1.13v.57c.05-.05,.08-.07,.1-.09,.53-.66,1.3-.71,1.92-.49,.26,.09,.45,.25,.58,.49,.02,.03,.04,.06,.06,.1,.08-.08,.15-.16,.22-.24,.35-.36,.78-.51,1.27-.46,.12,0,.23,.03,.35,.05,.6,.12,.97,.5,1.07,1.1,.02,.14,.03,.27,.03,.41,0,.93,0,1.86,0,2.79,0,.05,0,.11,0,.15-.12,.04-1.01,.05-1.21,.01,0-.06,0-.12,0-.18,0-.75,0-1.51,0-2.26,0-.15,0-.3-.02-.45,0-.07-.02-.15-.04-.22-.04-.13-.11-.24-.22-.32-.35-.26-.94-.12-1.14,.27-.08,.17-.1,.34-.12,.52,0,.07,0,.15,0,.22,0,.74,0,1.49,0,2.23,0,.06,0,.12,0,.19Z"/><path class="cls-1" d="M14.3,5.61v2.04h-1.19s0,0,0,0c0,0,0,0,0-.01,0-.02,0-.04,0-.06,0-1.93,0-3.86,0-5.79,0-.02,0-.04,.01-.08,.38,0,.75,0,1.15,0v.51s.02,0,.03,0c.01-.01,.03-.03,.04-.04,.3-.42,.72-.58,1.21-.59,.89-.02,1.56,.42,1.87,1.26,.27,.74,.27,1.49-.02,2.23-.2,.49-.54,.86-1.04,1.04-.48,.18-.96,.17-1.43-.04-.11-.05-.21-.12-.31-.19-.1-.07-.18-.16-.29-.26Zm2.06-1.7c0-.33-.05-.65-.22-.95-.14-.23-.32-.39-.59-.45-.55-.12-1.02,.15-1.19,.69-.05,.15-.07,.31-.09,.47-.04,.37,0,.73,.15,1.07,.18,.38,.49,.56,.9,.56,.43,0,.73-.22,.9-.61,.11-.25,.13-.51,.13-.78Z"/><path class="cls-1" d="M34.88,6.1h-1.21c-.03-.12-.06-.25-.09-.38-.03,.02-.05,.03-.07,.04-.26,.23-.57,.35-.9,.41-.35,.06-.7,.07-1.04-.02-.6-.14-.95-.59-.96-1.2,0-.26,.03-.51,.17-.74,.18-.29,.46-.45,.78-.54,.38-.11,.77-.15,1.16-.2,.17-.02,.34-.05,.5-.1,.23-.07,.33-.18,.33-.37,.01-.26-.09-.47-.3-.54-.3-.11-.62-.11-.92,0-.19,.07-.29,.23-.33,.42-.01,.05-.02,.1-.04,.15h-1.2c0-.05,0-.1,0-.14,.07-.51,.36-.86,.81-1.09,.32-.16,.66-.22,1-.24,.46-.03,.91,0,1.36,.14,.2,.07,.39,.17,.54,.32,.17,.17,.27,.37,.29,.61,0,.08,0,.16,0,.24,0,.76,0,1.52,0,2.28,0,.15,0,.31,.03,.46,.02,.15,.06,.3,.09,.47Zm-1.34-2.1c-.19,.05-.36,.1-.53,.13-.16,.03-.33,.04-.49,.07-.17,.03-.33,.07-.47,.18-.2,.15-.25,.35-.21,.58,.03,.22,.17,.35,.38,.4,.23,.06,.46,.06,.69,0,.3-.08,.5-.27,.59-.57,.07-.26,.05-.53,.05-.8Z"/><path class="cls-1" d="M25.49,4.2h-3.16c-.06,.53,.24,.97,.73,1.07,.38,.08,.74,.05,1.05-.22,.08-.07,.14-.16,.2-.24,.03-.04,.06-.07,.11-.07,.31,0,.63,0,.94,0,0,0,.02,0,.04,.02-.03,.07-.05,.15-.08,.23-.19,.46-.49,.82-.95,1.03-.24,.1-.48,.16-.74,.19-.35,.03-.69,.01-1.03-.08-.65-.19-1.11-.6-1.34-1.23-.3-.83-.26-1.63,.23-2.38,.35-.53,.87-.83,1.5-.91,.19-.02,.38-.03,.57-.01,.82,.07,1.38,.51,1.71,1.25,.19,.43,.24,.88,.21,1.37Zm-1.24-.79c-.03-.62-.47-.98-1.08-.92-.54,.05-.89,.52-.84,.92h1.92Z"/><path class="cls-1" d="M25.99,4.68h1.14s.02,.06,.03,.09c.04,.28,.2,.45,.45,.55,.29,.12,.58,.12,.87,.02,.12-.04,.22-.1,.3-.2,.16-.2,.12-.47-.1-.61-.09-.06-.19-.1-.29-.13-.37-.1-.74-.19-1.11-.29-.21-.06-.43-.13-.63-.23-.39-.19-.57-.52-.56-.96,.02-.58,.32-1,.88-1.2,.4-.14,.82-.17,1.24-.15,.28,.01,.55,.05,.81,.15,.51,.19,.9,.61,.93,1.23-.11,.04-.97,.04-1.14,0,0-.04-.02-.08-.03-.12-.04-.18-.15-.3-.32-.37-.28-.11-.57-.12-.86-.04-.05,.01-.1,.04-.14,.07-.2,.14-.21,.41-.02,.56,.12,.09,.26,.15,.4,.19,.31,.09,.63,.14,.94,.23,.21,.06,.42,.12,.62,.2,.17,.07,.31,.18,.44,.32,.12,.14,.2,.31,.23,.5,.1,.69-.23,1.27-.87,1.54-.26,.11-.53,.15-.81,.18-.46,.04-.92,0-1.37-.14-.34-.12-.62-.32-.82-.62-.15-.23-.2-.48-.22-.76Z"/><path class="cls-1" d="M4.64,54.54h-1.05s-.02-.05-.03-.07c-.1-.42-.52-.79-1.07-.8-.54,0-.97,.26-1.18,.77-.24,.59-.25,1.19-.02,1.79,.23,.59,.74,.88,1.37,.8,.37-.05,.64-.24,.79-.57,.08-.16,.12-.34,.19-.53,.32-.02,.67,0,1.04,0-.01,.09-.02,.17-.03,.25-.1,.54-.33,1.01-.77,1.35-.32,.25-.7,.38-1.1,.42-.54,.05-1.05-.02-1.53-.28-.52-.29-.87-.73-1.05-1.29-.26-.81-.23-1.62,.16-2.39,.37-.73,.98-1.12,1.79-1.22,.54-.07,1.06,0,1.54,.28,.5,.29,.8,.72,.92,1.28,.01,.06,.02,.12,.03,.21Z"/><path class="cls-1" d="M30.12,54.62v-1.72c.13-.04,.78-.04,.98-.02,.03,.11,.04,4.74,0,4.97-.3,.02-.61,0-.93,0v-.42s-.07,.04-.08,.06c-.2,.27-.48,.39-.8,.44-.76,.1-1.39-.25-1.67-.96-.25-.61-.26-1.23-.01-1.85,.18-.45,.5-.78,.97-.92,.36-.1,.71-.09,1.06,.07,.18,.08,.32,.2,.44,.36,.01,0,.02,0,.04-.01Zm-1.68,1.41s0,.06,0,.1c.02,.29,.08,.57,.27,.8,.33,.41,1.07,.38,1.3-.16,.19-.45,.2-.91,.03-1.37-.13-.34-.4-.51-.76-.5-.35,0-.61,.19-.74,.52-.08,.19-.11,.4-.1,.61Z"/><path class="cls-1" d="M31.67,55.35c.03-.44,.23-.75,.6-.96,.17-.1,.36-.16,.55-.19,.5-.08,1-.08,1.48,.09,.31,.1,.54,.3,.62,.63,.02,.1,.03,.2,.03,.3,0,.56,0,1.13,0,1.69,0,.31,0,.63,.1,.93-.12,.04-.81,.04-.99,0-.02-.09-.05-.19-.07-.28-.02,0-.04,0-.05,.02-.23,.21-.5,.31-.81,.35-.24,.04-.49,.04-.73,0-.55-.11-.87-.5-.86-1.06,.01-.51,.26-.85,.77-.98,.31-.08,.64-.11,.96-.16,.14-.02,.27-.04,.4-.08,.14-.04,.26-.12,.27-.3,.01-.22-.06-.38-.24-.45-.26-.1-.53-.1-.79,.02-.13,.06-.2,.17-.24,.3-.01,.05-.02,.09-.03,.14h-.99Zm2.3,.8c-.25,.05-.47,.08-.68,.13-.16,.04-.33,.07-.49,.14-.19,.09-.27,.28-.24,.49,.03,.19,.16,.33,.38,.35,.14,.02,.29,.02,.43,0,.29-.03,.52-.25,.57-.54,.03-.19,.03-.39,.04-.58Z"/><path class="cls-1" d="M27.2,57.85h-.98c-.03-.1-.05-.2-.08-.29-.02,0-.04,.01-.05,.02-.24,.22-.54,.32-.85,.35-.33,.04-.65,.03-.95-.11-.36-.16-.54-.45-.57-.84-.01-.21,0-.43,.1-.62,.14-.27,.38-.43,.67-.49,.31-.07,.63-.11,.94-.16,.14-.02,.28-.05,.42-.09,.14-.04,.26-.13,.26-.3,0-.19-.04-.36-.23-.43-.27-.11-.54-.11-.8,.02-.13,.06-.19,.18-.23,.31-.01,.04-.02,.09-.04,.14h-.98c0-.35,.14-.63,.41-.83,.12-.09,.26-.18,.4-.22,.59-.2,1.19-.19,1.79-.02,.08,.02,.16,.06,.23,.1,.29,.17,.45,.42,.45,.77,0,.6,0,1.19,0,1.79,0,.15,0,.31,.02,.46,.01,.15,.05,.29,.07,.46Zm-1.09-1.73c-.26,.13-.52,.13-.78,.18-.13,.03-.27,.07-.39,.13-.19,.09-.26,.29-.22,.5,.03,.18,.16,.31,.36,.33,.15,.02,.3,.02,.44,0,.28-.03,.49-.23,.56-.5,.05-.21,.04-.42,.03-.65Z"/><path class="cls-1" d="M8.6,56.29h-2.56c-.07,.26,.07,.62,.31,.78,.34,.22,.88,.17,1.17-.11,.03-.03,.06-.05,.07-.08,.05-.14,.16-.15,.28-.14,.17,0,.34,0,.51,0,.05,0,.09,0,.16,.01-.14,.4-.33,.74-.69,.95-.41,.24-.85,.28-1.31,.23-.98-.12-1.5-.87-1.53-1.77-.02-.41,.05-.8,.27-1.15,.41-.65,1.01-.91,1.76-.85,.78,.06,1.31,.6,1.49,1.32,.07,.26,.1,.52,.06,.81Zm-1.01-.64c-.02-.51-.36-.78-.88-.74-.4,.03-.72,.38-.67,.74h1.55Z"/><path class="cls-1" d="M18.14,1.69h1.15v.74s.02,0,.03,0c.02-.03,.04-.06,.06-.1,.28-.46,.69-.71,1.22-.78,.06,0,.13,0,.19,0,.06,0,.11,.02,.19,.03,.02,.37,0,.74,0,1.13-.06,0-.1,0-.14,0-.2,0-.4-.02-.59,0-.45,.07-.71,.35-.83,.78-.07,.24-.08,.48-.08,.73,0,.56,0,1.12,0,1.67,0,.06,0,.11,0,.18h-1.21V1.69Z"/><path class="cls-1" d="M22.5,56.48h.94c0,.05,0,.09,0,.13-.13,.67-.51,1.11-1.18,1.27-.48,.12-.96,.1-1.41-.13-.56-.29-.85-.77-.93-1.38-.05-.4,0-.79,.15-1.16,.25-.6,.7-.94,1.34-1.04,.37-.06,.74-.03,1.1,.11,.52,.2,.84,.56,.93,1.12,0,.03,0,.06,0,.09-.11,.04-.66,.05-.96,.02-.02-.05-.03-.1-.05-.16-.09-.26-.27-.4-.53-.44-.4-.05-.69,.1-.85,.46-.2,.45-.2,.92,0,1.38,.2,.45,.62,.53,1,.4,.2-.07,.32-.22,.39-.41,.03-.08,.05-.16,.08-.26Z"/><path class="cls-1" d="M17.36,57.85h-.99v-.98c0-.32,0-.65,0-.97,0-.32,0-.64,0-.98h-.58v-.67h.58c0-.11,0-.19,0-.27,.02-.15,.03-.3,.07-.44,.12-.33,.36-.53,.7-.62,.32-.08,.63-.05,.96-.02v.72c-.09,0-.17,0-.25,0-.07,0-.14,0-.21,0-.15,.02-.24,.1-.26,.25-.02,.11-.01,.22-.02,.35,.23,.02,.45,0,.66,.01,.04,.12,.05,.48,0,.67h-.66v2.94Z"/><path class="cls-1" d="M13.88,57.1c0,.25,0,.5,0,.73-.02,.02-.03,.03-.04,.03-.35,.04-.7,.06-1.05-.01-.41-.08-.6-.31-.63-.73,0-.08,0-.17,0-.25,0-.58,0-1.17,0-1.75v-.2h-.59v-.67h.57c.03-.19,.01-.37,.01-.55,0-.17,0-.35,0-.53h.99c.02,.35,0,.7,.02,1.07h.71c0,.12,0,.22,0,.33,0,.11,0,.21,0,.34h-.71c0,.07-.01,.11-.01,.16,0,.54,0,1.08,0,1.63,0,.33,.08,.42,.41,.42,.09,0,.19,0,.3-.02Z"/><path class="cls-1" d="M8.92,54.25h.93v.59s.02,0,.03,0c.02-.03,.05-.06,.07-.1,.22-.35,.54-.55,.95-.6,.11-.01,.22-.01,.33,.04v.91c-.06,0-.12-.01-.17-.01-.14,0-.29,0-.43,.02-.33,.06-.55,.27-.65,.59-.05,.16-.07,.33-.07,.5,0,.49,0,.98,0,1.47,0,.06,0,.11,0,.17-.14,.04-.82,.04-.99,0v-3.58Z"/><path class="cls-1" d="M19.49,57.85h-.98v-3.6h.98v3.6Z"/><path class="cls-1" d="M15.36,57.85h-.96c-.03-.11-.05-3.36-.01-3.6,.32,0,.64,0,.97,0v3.6Z"/><path class="cls-1" d="M34.98,45.46c0,.58-.47,1.03-1.06,1.03-.59,0-1.05-.47-1.04-1.06,0-.58,.47-1.03,1.06-1.03,.59,0,1.05,.47,1.04,1.06Zm-1.05,.87c.48,0,.85-.39,.85-.88,0-.5-.37-.88-.85-.88-.49,0-.86,.37-.86,.87,0,.5,.37,.89,.86,.89Z"/><path class="cls-1" d="M18.51,52.88h.99v.81h-.99c0-.27,0-.53,0-.81Z"/><path class="cls-1" d="M15.37,52.87v.81h-.98v-.81c.32-.01,.64,0,.98,0Z"/><path class="cls-1" d="M10.2,36.7V16.73c.06,0,.11,0,.16,0,2.59,0,5.19,0,7.78,0,.8,0,1.59,.02,2.39,.12,.4,.05,.81,.13,1.21,.21,.81,.18,1.47,.63,2.04,1.22,.93,.97,1.34,2.14,1.31,3.47-.02,.85-.21,1.65-.64,2.39-.49,.84-1.21,1.45-2.09,1.86-.08,.04-.17,.06-.25,.14,.08,.02,.14,.04,.2,.05,.81,.19,1.54,.54,2.16,1.11,.62,.56,1.03,1.26,1.25,2.06,.44,1.68,.24,3.28-.69,4.76-.67,1.06-1.62,1.77-2.8,2.19-.73,.26-1.49,.38-2.27,.38-3.19,0-6.39,0-9.58,0h-.17Zm2.66-2.24h.16c2.18,0,4.37,0,6.55,0,.45,0,.89-.06,1.32-.19,.98-.31,1.7-.91,2.1-1.88,.23-.56,.3-1.15,.27-1.75-.02-.48-.13-.94-.35-1.36-.34-.64-.88-1.05-1.54-1.32-.71-.28-1.46-.39-2.22-.39-2.05,0-4.09,0-6.14,0-.05,0-.09,0-.15,.01v6.89Zm0-9.14c.08,0,.14,0,.21,0,1.65,0,3.31,0,4.96,0,.39,0,.79-.02,1.18-.05,.57-.05,1.13-.17,1.66-.41,.74-.34,1.23-.9,1.43-1.69,.18-.71,.17-1.43-.01-2.15-.15-.58-.46-1.06-.97-1.4-.32-.22-.68-.35-1.05-.44-.62-.15-1.26-.2-1.9-.2-1.79,0-3.58,0-5.37,0-.05,0-.09,0-.14,.01v6.33Z"/><path class="cls-1" d="M33.53,44.83c.2,0,.39-.01,.57,0,.23,.02,.34,.15,.33,.37,0,.13-.06,.22-.18,.27-.03,.01-.07,.03-.12,.05,.11,.17,.21,.33,.31,.5-.18,.04-.18,.04-.26-.08-.06-.1-.13-.19-.19-.3-.06-.1-.13-.15-.27-.1v.49h-.2v-1.2Zm.2,.53c.12,0,.23,0,.34,0,.11-.01,.16-.08,.16-.18,0-.09-.05-.16-.15-.17-.11-.01-.23,0-.35,0v.36Z"/></g></g></svg>