<svg width="15" height="16" viewBox="0 0 15 16" fill="none" xmlns="http://www.w3.org/2000/svg">
<path d="M15 8.12668C15.0007 6.75664 14.5906 5.41495 13.8181 4.2608C13.0456 3.10666 11.9432 2.18841 10.6414 1.61456C9.33967 1.0407 7.89307 0.835492 6.47298 1.0231C5.05289 1.21071 3.71881 1.78327 2.62876 2.67311C1.53871 3.56295 0.738354 4.73266 0.322491 6.04379C-0.0933718 7.35493 -0.107317 8.75256 0.282305 10.071C0.671927 11.3895 1.44879 12.5736 2.52088 13.4832C3.59298 14.3927 4.91539 14.9895 6.33148 15.203V10.1948H4.42965V8.12668H6.33148V6.54845C6.33148 4.74802 7.4523 3.7567 9.16335 3.7567C9.72669 3.76416 10.2887 3.81177 10.8446 3.89914V5.6596H9.89666C9.73593 5.64348 9.57347 5.662 9.42114 5.71357C9.2688 5.76513 9.13045 5.84834 9.01617 5.95755C8.9019 6.06676 8.81459 6.19895 8.76063 6.34453C8.70667 6.49011 8.68742 6.64551 8.70429 6.79911V8.14365H10.7373L10.4034 10.2121H8.6566V15.203C10.4229 14.9395 12.0327 14.0818 13.1957 12.7843C14.3588 11.4869 14.9986 9.83513 15 8.12668Z" fill="white"/>
</svg>
