<svg width="44" height="50" viewBox="0 0 44 50" fill="none" xmlns="http://www.w3.org/2000/svg">
<path d="M37.1899 10.1673C37.2684 10.2531 37.3505 10.3282 37.4326 10.4104C37.3541 10.3282 37.2684 10.2495 37.1899 10.1673C34.3665 8.40126 32.3283 5.49121 31.7323 2.08423C31.6751 1.7589 31.6323 1.43 31.6002 1.1011V0H23.0014V34.1806C22.9871 38.1667 19.7568 41.3914 15.7733 41.3914C14.6025 41.3914 13.4996 41.1125 12.5216 40.6192C10.1622 39.4287 8.54522 36.9798 8.54522 34.1556C8.54522 30.1587 11.7827 26.9198 15.7733 26.9198C16.5372 26.9198 17.2761 27.0378 17.9685 27.2594V20.449V18.5114C17.2511 18.4113 16.5265 18.3648 15.8019 18.3648C7.07461 18.3648 0 25.4469 0 34.1842C0 39.6611 2.78059 44.4873 7.00323 47.3259C9.51611 49.0169 12.543 50 15.7983 50C24.5256 50 31.6002 42.9179 31.6002 34.1806V16.7167C34.959 19.1191 39.071 20.5312 43.5149 20.5312V11.9727C41.2805 11.9727 39.0853 11.3506 37.1899 10.1637V10.1673Z" fill="#545454"/>
</svg>
