<svg width="122" height="35" viewBox="0 0 122 35" fill="none" xmlns="http://www.w3.org/2000/svg">
<path d="M30.4396 6.01864C27.2476 5.33943 26.3295 3.98826 25.8869 2.02797L25.4266 0H7.21597L6.75564 2.02797C6.31049 3.98826 5.3949 5.33943 2.20298 6.01864L0 6.48515L0.0910494 8.63156C0.313624 13.8985 1.63896 19.059 3.82676 23.1633C6.45718 28.1015 10.2308 31.865 15.0389 34.3425L16.3036 35L17.5834 34.3425C22.2397 31.9399 26.1171 28.0121 28.7955 22.982C31.0213 18.8052 32.3112 13.8429 32.5312 8.62673L32.6198 6.48032L30.4396 6.01864ZM31.1983 8.5808C30.9909 13.5383 29.7162 18.4475 27.6093 22.4019C25.0548 27.1951 21.3722 30.9392 16.946 33.2089L16.3061 33.5401L15.6814 33.2089C11.1287 30.857 7.53212 27.2797 5.02816 22.5735C2.92635 18.6312 1.6516 13.6592 1.43661 8.57597L1.39362 7.50276L2.48879 7.26105C5.77682 6.56492 7.43348 5.08564 8.05315 2.2866L8.2833 1.27383H24.3314L24.5616 2.2866C25.1939 5.07597 26.8607 6.56492 30.1259 7.26105L31.2236 7.50276L31.1983 8.5808Z" fill="#545454"/>
<path d="M38.7407 9.77728V9.74828C38.7324 9.18814 38.8422 8.63214 39.0636 8.11345C39.2851 7.59475 39.6135 7.12399 40.0294 6.72923C40.4453 6.33446 40.9402 6.02379 41.4844 5.81574C42.0286 5.60768 42.6112 5.50651 43.1972 5.51825C44.8007 5.51825 45.7998 6.0331 46.5915 6.88153L45.1169 8.39709C44.5782 7.85323 44.0369 7.50273 43.182 7.50273C41.9756 7.50273 41.1207 8.52036 41.1207 9.71685V9.74828C41.1207 10.9907 41.9604 11.9914 43.2781 11.9914C44.085 11.9914 44.6414 11.6578 45.2282 11.1261L46.6395 12.4917C46.2195 12.9781 45.6875 13.3651 45.0851 13.6226C44.4827 13.88 43.8262 14.0009 43.1668 13.9759C42.5852 13.9869 42.0072 13.8861 41.4671 13.6794C40.927 13.4728 40.4359 13.1644 40.023 12.7727C39.6101 12.3811 39.2838 11.9141 39.0635 11.3995C38.8432 10.8849 38.7334 10.3332 38.7407 9.77728Z" fill="#545454"/>
<path d="M46.6067 9.77724V9.74824C46.6067 7.41327 48.5744 5.51822 51.2226 5.51822C53.8707 5.51822 55.8081 7.38184 55.8081 9.71682V9.74824C55.8081 12.0808 53.8404 13.9758 51.1922 13.9758C48.5441 13.9758 46.6067 12.1122 46.6067 9.77724ZM53.4357 9.77724V9.74824C53.4357 8.53966 52.5327 7.5027 51.1998 7.5027C49.8188 7.5027 48.9943 8.52032 48.9943 9.71682V9.74824C48.9943 10.9447 49.8972 11.9914 51.2302 11.9914C52.6111 11.9914 53.4357 10.9762 53.4357 9.77724Z" fill="#545454"/>
<path d="M56.5997 5.66814H59.0101V6.82111C59.5665 6.13948 60.295 5.51828 61.5166 5.51828C62.6269 5.51828 63.4692 5.9872 63.9118 6.8066C64.2415 6.40276 64.6638 6.07661 65.1461 5.85326C65.6285 5.6299 66.158 5.5153 66.694 5.51828C68.4847 5.51828 69.5647 6.54797 69.5647 8.50342V13.7945H67.1543V9.26241C67.1543 8.16986 66.6484 7.60909 65.743 7.60909C64.8375 7.60909 64.2836 8.16986 64.2836 9.26241V13.7945H61.8707V9.26241C61.8707 8.16986 61.3648 7.60909 60.4594 7.60909C59.5539 7.60909 59 8.16986 59 9.26241V13.7945H56.5896L56.5997 5.66814Z" fill="#545454"/>
<path d="M70.7156 5.66802H73.1285V6.8355C73.4196 6.42197 73.8144 6.08474 74.277 5.85462C74.7396 5.6245 75.2552 5.50883 75.7766 5.51816C77.7595 5.51816 79.6463 7.00228 79.6463 9.71673V9.74815C79.6463 12.4602 77.7899 13.9467 75.7766 13.9467C75.267 13.9573 74.762 13.8534 74.3021 13.6435C73.8421 13.4336 73.4402 13.1235 73.1285 12.7382V16.2237H70.7156V5.66802ZM77.236 9.74815V9.71673C77.236 8.36797 76.285 7.47363 75.1569 7.47363C74.0289 7.47363 73.0956 8.36797 73.0956 9.71673V9.74815C73.0956 11.0945 74.0314 11.9913 75.1569 11.9913C76.2824 11.9913 77.236 11.1114 77.236 9.74815Z" fill="#545454"/>
<path d="M80.4707 5.66831H82.8811V7.30712C83.3743 6.18558 84.1659 5.45802 85.595 5.51845V7.93558H85.466C83.865 7.93558 82.8811 8.85892 82.8811 10.7999V13.8019H80.4707V5.66831Z" fill="#545454"/>
<path d="M85.2358 11.4595V11.4305C85.2358 9.65631 86.6472 8.83689 88.6604 8.83689C89.3685 8.83134 90.0721 8.94423 90.7395 9.17046V9.0351C90.7395 8.08032 90.1198 7.54854 88.9159 7.54854C88.1104 7.54945 87.3126 7.69882 86.5662 7.98847L85.9643 6.23119C86.9985 5.77735 88.1272 5.55418 89.2649 5.57855C90.5801 5.57855 91.5413 5.91212 92.1356 6.48741C92.73 7.06269 93.0537 7.98847 93.0537 9.08103V13.7945H90.7243V12.9146C90.402 13.257 90.0045 13.527 89.5603 13.7055C89.116 13.8839 88.636 13.9663 88.1546 13.9468C86.551 13.9468 85.2358 13.0669 85.2358 11.4595ZM90.7698 10.9302V10.5192C90.2853 10.3158 89.7612 10.2129 89.232 10.2171C88.2001 10.2171 87.5678 10.6111 87.5678 11.3387V11.3677C87.5678 11.9913 88.1065 12.3539 88.883 12.3539C90.0085 12.3539 90.7698 11.7641 90.7698 10.9302Z" fill="#545454"/>
<path d="M94.1918 5.66808H96.6021V6.82106C97.156 6.13942 97.8668 5.51822 99.0909 5.51822C100.917 5.51822 101.979 6.66878 101.979 8.53481V13.7945H99.5689V9.26238C99.5689 8.16983 99.0277 7.60905 98.1096 7.60905C97.1914 7.60905 96.592 8.16983 96.592 9.26238V13.7945H94.1816L94.1918 5.66808Z" fill="#545454"/>
<path d="M102.741 9.74808V9.71665C102.741 7.00222 104.595 5.5181 106.61 5.5181C107.12 5.50792 107.625 5.61193 108.085 5.82181C108.545 6.03168 108.947 6.34158 109.259 6.72667V2.72391H111.669V13.7895H109.264V12.622C108.973 13.036 108.578 13.3737 108.116 13.6043C107.653 13.8348 107.137 13.9509 106.616 13.9418C104.633 13.9418 102.746 12.4553 102.746 9.74324L102.741 9.74808ZM109.297 9.74324V9.71182C109.297 8.36306 108.361 7.46872 107.233 7.46872C106.105 7.46872 105.156 8.34856 105.156 9.71182V9.74324C105.156 11.0896 106.107 11.9863 107.233 11.9863C108.358 11.9863 109.297 11.0896 109.297 9.74324Z" fill="#545454"/>
<path d="M112.463 9.77724V9.74824C112.463 7.41327 114.429 5.51822 117.079 5.51822C119.73 5.51822 121.657 7.38184 121.657 9.71682V9.74824C121.657 12.0808 119.689 13.9758 117.041 13.9758C114.393 13.9758 112.458 12.1122 112.458 9.77724H112.463ZM119.287 9.77724V9.74824C119.287 8.53966 118.384 7.5027 117.051 7.5027C115.673 7.5027 114.848 8.52032 114.848 9.71682V9.74824C114.848 10.9447 115.751 11.9914 117.084 11.9914C118.463 11.9914 119.287 10.9762 119.287 9.77724Z" fill="#545454"/>
<path d="M38.7405 22.6629V22.6339C38.7405 20.3159 40.4705 18.4039 42.9441 18.4039C45.7819 18.4039 47.0845 20.5117 47.0845 22.8152C47.0845 22.9989 47.0668 23.2092 47.0516 23.4219H41.1357C41.3734 24.4686 42.1474 25.0148 43.2122 25.0148C44.0216 25.0148 44.6084 24.7731 45.2761 24.1809L46.6545 25.3484C46.2392 25.8421 45.709 26.2362 45.1061 26.4993C44.5032 26.7625 43.8442 26.8873 43.1819 26.864C40.6273 26.864 38.7405 25.1502 38.7405 22.6629ZM44.7348 21.9813C44.5932 20.9516 43.9583 20.253 42.9441 20.253C41.9299 20.253 41.295 20.9371 41.1028 21.9813H44.7348Z" fill="#545454"/>
<path d="M47.9243 18.5562H50.3321V19.7092C50.8886 19.0251 51.5967 18.4039 52.8234 18.4039C54.647 18.4039 55.7093 19.5569 55.7093 21.423V26.6827H53.2989V22.1481C53.2989 21.058 52.7602 20.4972 51.8396 20.4972C50.9189 20.4972 50.322 21.058 50.322 22.1481V26.6827H47.9116L47.9243 18.5562Z" fill="#545454"/>
<path d="M60.7021 28.2804L61.5266 26.5522C62.3942 27.0527 63.389 27.3161 64.4024 27.3136C66.054 27.3136 66.8305 26.5546 66.8305 25.0995V24.7055C66.1172 25.5249 65.3382 26.0228 64.0483 26.0228C62.0654 26.0228 60.2747 24.6451 60.2747 22.2352V22.2038C60.2747 19.7866 62.0982 18.4137 64.0483 18.4137C65.366 18.4137 66.1425 18.9455 66.7925 19.6223V18.5611H69.2054V24.8457C69.2054 26.296 68.8387 27.3619 68.1254 28.0436C67.3338 28.8001 66.102 29.1337 64.4606 29.1337C63.1539 29.1444 61.8641 28.8516 60.7021 28.2804ZM66.8305 22.2376V22.2062C66.8305 21.0991 65.925 20.3281 64.7514 20.3281C63.5779 20.3281 62.6901 21.0991 62.6901 22.2062V22.2376C62.6901 23.3592 63.5779 24.1157 64.7514 24.1157C65.925 24.1157 66.8305 23.3447 66.8305 22.2376Z" fill="#545454"/>
<path d="M70.4143 18.5564H72.8247V20.1928C73.3305 19.0712 74.1095 18.3437 75.5386 18.4041V20.8212H75.4121C73.8086 20.8212 72.8247 21.7445 72.8247 23.6855V26.6875H70.4143V18.5564Z" fill="#545454"/>
<path d="M76.0293 23.8159V18.5562H78.4397V23.0883C78.4397 24.1808 78.9784 24.7416 79.8991 24.7416C80.8197 24.7416 81.4166 24.1808 81.4166 23.0883V18.5562H83.827V26.6825H81.4166V25.5296C80.8627 26.2112 80.152 26.8324 78.9253 26.8324C77.1017 26.8324 76.0394 25.6794 76.0394 23.8159" fill="#545454"/>
<path d="M85.0232 18.5564H87.4336V19.7239C87.7244 19.3099 88.1191 18.9722 88.5817 18.7416C89.0444 18.5111 89.5601 18.395 90.0817 18.4041C92.0646 18.4041 93.9515 19.8907 93.9515 22.6051V22.6341C93.9515 25.3486 92.0975 26.8328 90.0817 26.8328C89.5723 26.8426 89.0675 26.7384 88.6077 26.5286C88.1479 26.3187 87.7458 26.009 87.4336 25.6242V29.1098H85.0232V18.5564ZM91.5411 22.6341V22.6051C91.5411 21.2539 90.5901 20.362 89.4646 20.362C88.339 20.362 87.4007 21.2539 87.4007 22.6051V22.6341C87.4007 23.9829 88.3365 24.8773 89.4646 24.8773C90.5926 24.8773 91.5411 23.9999 91.5411 22.6341Z" fill="#545454"/>
<path d="M94.3638 22.6653V22.6339C94.3638 20.2989 96.3315 18.4039 98.9796 18.4039C101.628 18.4039 103.565 20.2699 103.565 22.6049V22.6339C103.565 24.9689 101.597 26.8639 98.9493 26.8639C96.3012 26.8639 94.3638 24.9979 94.3638 22.6653ZM101.193 22.6653V22.6339C101.193 21.4253 100.287 20.3908 98.9569 20.3908C97.5759 20.3908 96.7514 21.406 96.7514 22.6049V22.6339C96.7514 23.8425 97.6543 24.877 98.9872 24.877C100.368 24.877 101.193 23.8618 101.193 22.6653Z" fill="#545454"/>
<path d="M23.2514 2.4967H9.37339C8.66267 5.63899 6.75814 7.6428 2.7771 8.49122C2.97438 13.2216 4.15554 18.1187 6.22194 21.9958C8.60196 26.4627 11.9937 29.8491 16.3136 32.0777C20.6336 29.8491 24.0253 26.2765 26.4054 21.8C28.4718 17.9326 29.6529 13.2216 29.8502 8.49122C25.8666 7.6428 23.9646 5.64382 23.2514 2.4967ZM9.06229 18.4813C6.91243 18.4813 5.34683 17.2123 5.34683 15.1988C5.36937 13.9951 5.88561 12.8479 6.7844 12.0043C7.68318 11.1608 8.89264 10.6882 10.1524 10.6884C11.67 10.6884 12.6816 11.3024 13.3064 12.2934L11.8748 13.2602C11.4145 12.6366 10.8833 12.2281 9.93741 12.2281C8.49573 12.2281 7.15523 13.5406 7.15523 15.1432C7.14426 15.3869 7.18678 15.63 7.28006 15.8571C7.37334 16.0841 7.51532 16.2899 7.69685 16.4614C7.87838 16.6328 8.09545 16.7661 8.3341 16.8525C8.57275 16.9389 8.82769 16.9767 9.08252 16.9633C9.84129 16.9633 10.3472 16.6732 10.9289 16.2212L12.0544 17.3404C11.6615 17.7116 11.1954 18.0045 10.683 18.202C10.1707 18.3995 9.62231 18.4977 9.06987 18.4909L9.06229 18.4813ZM18.3725 16.8884L17.9577 18.3628H12.0038L14.1208 10.8286H20.0089L19.5941 12.303H15.4284L15.001 13.8428H18.6608L18.2435 15.2931H14.5811L14.1309 16.8859L18.3725 16.8884ZM25.7731 17.7803C24.9037 18.2585 23.9155 18.504 22.9125 18.4909C21.1091 18.4909 19.2071 17.4685 19.2071 15.2205C19.2071 12.8735 21.2912 10.6981 24.129 10.6981C25.7958 10.6981 26.7974 11.312 27.3488 12.0009L26.0664 13.0886C25.8102 12.8052 25.4911 12.5798 25.1324 12.4289C24.7736 12.278 24.3842 12.2052 23.9924 12.216C23.1877 12.2281 22.4205 12.544 21.8585 13.0946C21.2966 13.6453 20.9853 14.3861 20.9928 15.1553C20.9928 16.33 21.8957 16.9633 23.0162 16.9633C23.5024 16.9674 23.9836 16.8683 24.425 16.6732L24.7967 15.4477H23.0516L23.4562 14.0144H26.8809L25.7731 17.7803Z" fill="#545454"/>
</svg>
