<svg width="100" height="29" viewBox="0 0 100 29" fill="none" xmlns="http://www.w3.org/2000/svg">
<path d="M25.0208 4.94722C22.3971 4.38892 21.6424 3.27828 21.2786 1.66696L20.9002 0H5.9314L5.55302 1.66696C5.18712 3.27828 4.43452 4.38892 1.81082 4.94722L0 5.33069L0.0748411 7.095C0.257793 11.4243 1.3472 15.6662 3.14553 19.0399C5.3077 23.099 8.40957 26.1925 12.3618 28.229L13.4013 28.7694L14.4532 28.229C18.2807 26.2541 21.4678 23.0255 23.6694 18.8909C25.499 15.4576 26.5593 11.3786 26.7401 7.09102L26.8129 5.32671L25.0208 4.94722ZM25.6445 7.05327C25.474 11.1283 24.4262 15.1635 22.6944 18.414C20.5946 22.3539 17.5676 25.4315 13.9293 27.2972L13.4033 27.5694L12.8898 27.2972C9.14761 25.364 6.19127 22.4234 4.13306 18.5551C2.40541 15.3145 1.35759 11.2276 1.18087 7.0493L1.14553 6.16714L2.04574 5.96846C4.74845 5.39625 6.1102 4.18031 6.61955 1.87955L6.80874 1.04706H20L20.1892 1.87955C20.7089 4.17236 22.079 5.39625 24.763 5.96846L25.6653 6.16714L25.6445 7.05327Z" fill="white"/>
<path d="M31.8441 8.03676V8.01292C31.8373 7.55249 31.9276 7.09547 32.1096 6.66912C32.2916 6.24276 32.5616 5.8558 32.9034 5.53131C33.2453 5.20682 33.652 4.95146 34.0994 4.78044C34.5468 4.60942 35.0256 4.52626 35.5073 4.53591C36.8254 4.53591 37.6466 4.95911 38.2973 5.6565L37.0853 6.90226C36.6424 6.45522 36.1975 6.16712 35.4948 6.16712C34.5031 6.16712 33.8005 7.00359 33.8005 7.98709V8.01292C33.8005 9.03417 34.4907 9.85673 35.5738 9.85673C36.237 9.85673 36.6944 9.58254 37.1767 9.14543L38.3368 10.268C37.9916 10.6678 37.5543 10.9859 37.0591 11.1975C36.564 11.4092 36.0243 11.5085 35.4824 11.4879C35.0042 11.497 34.5291 11.4142 34.0852 11.2443C33.6412 11.0744 33.2376 10.8209 32.8982 10.499C32.5588 10.177 32.2906 9.79316 32.1095 9.37017C31.9284 8.94719 31.8382 8.49374 31.8441 8.03676Z" fill="white"/>
<path d="M38.3098 8.03674V8.01289C38.3098 6.09359 39.9273 4.53589 42.104 4.53589C44.2807 4.53589 45.8732 6.06776 45.8732 7.98706V8.01289C45.8732 9.93022 44.2558 11.4879 42.079 11.4879C39.9023 11.4879 38.3098 9.95604 38.3098 8.03674ZM43.9231 8.03674V8.01289C43.9231 7.01946 43.1809 6.1671 42.0853 6.1671C40.9501 6.1671 40.2724 7.00357 40.2724 7.98706V8.01289C40.2724 8.99639 41.0146 9.8567 42.1102 9.8567C43.2454 9.8567 43.9231 9.02222 43.9231 8.03674Z" fill="white"/>
<path d="M46.5239 4.65912H48.5052V5.60684C48.9626 5.04655 49.5614 4.53594 50.5655 4.53594C51.4782 4.53594 52.1705 4.92138 52.5343 5.59492C52.8054 5.26297 53.1525 4.99488 53.5489 4.81128C53.9454 4.62769 54.3807 4.53349 54.8212 4.53594C56.2932 4.53594 57.1809 5.38233 57.1809 6.98968V11.3389H55.1996V7.61355C55.1996 6.7155 54.7838 6.25455 54.0395 6.25455C53.2953 6.25455 52.8399 6.7155 52.8399 7.61355V11.3389H50.8566V7.61355C50.8566 6.7155 50.4408 6.25455 49.6965 6.25455C48.9522 6.25455 48.4969 6.7155 48.4969 7.61355V11.3389H46.5156L46.5239 4.65912Z" fill="white"/>
<path d="M58.127 4.65901H60.1103V5.61866C60.3496 5.27875 60.6742 5.00155 61.0544 4.81239C61.4347 4.62324 61.8584 4.52816 62.287 4.53583C63.917 4.53583 65.4679 5.75575 65.4679 7.98698V8.01281C65.4679 10.2421 63.9419 11.464 62.287 11.464C61.8682 11.4726 61.453 11.3873 61.075 11.2148C60.6969 11.0422 60.3665 10.7873 60.1103 10.4705V13.3356H58.127V4.65901ZM63.4866 8.01281V7.98698C63.4866 6.87832 62.7049 6.14319 61.7777 6.14319C60.8504 6.14319 60.0833 6.87832 60.0833 7.98698V8.01281C60.0833 9.11948 60.8525 9.8566 61.7777 9.8566C62.7028 9.8566 63.4866 9.13339 63.4866 8.01281Z" fill="white"/>
<path d="M66.1455 4.65926H68.1268V6.00634C68.5322 5.08444 69.1829 4.48641 70.3576 4.53608V6.52292H70.2515C68.9355 6.52292 68.1268 7.28189 68.1268 8.87732V11.345H66.1455V4.65926Z" fill="white"/>
<path d="M70.0625 9.41952V9.39567C70.0625 7.93731 71.2226 7.26376 72.8775 7.26376C73.4595 7.2592 74.0379 7.352 74.5864 7.53795V7.42669C74.5864 6.64187 74.077 6.20476 73.0874 6.20476C72.4253 6.20551 71.7695 6.32829 71.1561 6.56637L70.6613 5.12192C71.5114 4.74887 72.4391 4.56543 73.3743 4.58547C74.4554 4.58547 75.2454 4.85965 75.734 5.33253C76.2226 5.8054 76.4887 6.56637 76.4887 7.46444V11.3388H74.5739V10.6156C74.309 10.897 73.9823 11.119 73.6171 11.2656C73.252 11.4123 72.8574 11.48 72.4617 11.464C71.1436 11.464 70.0625 10.7408 70.0625 9.41952ZM74.6113 8.98439V8.64662C74.2131 8.47944 73.7823 8.39479 73.3473 8.39827C72.4991 8.39827 71.9793 8.72212 71.9793 9.32017V9.34401C71.9793 9.85663 72.4222 10.1547 73.0604 10.1547C73.9856 10.1547 74.6113 9.66986 74.6113 8.98439Z" fill="white"/>
<path d="M77.4241 4.65907H79.4054V5.6068C79.8607 5.04651 80.4449 4.53589 81.4511 4.53589C82.9521 4.53589 83.8253 5.48163 83.8253 7.01548V11.3389H81.844V7.61352C81.844 6.71547 81.3991 6.25451 80.6445 6.25451C79.8898 6.25451 79.3971 6.71547 79.3971 7.61352V11.3389H77.4158L77.4241 4.65907Z" fill="white"/>
<path d="M84.4512 8.01276V7.98693C84.4512 5.75571 85.9751 4.5358 87.6321 4.5358C88.0509 4.52742 88.4659 4.61292 88.8439 4.78543C89.2219 4.95795 89.5523 5.21268 89.8088 5.52921V2.23901H91.7901V11.3348H89.8129V10.3751C89.5739 10.7154 89.2494 10.993 88.8692 11.1825C88.4889 11.372 88.065 11.4674 87.6362 11.4599C86.0063 11.4599 84.4553 10.238 84.4553 8.00879L84.4512 8.01276ZM89.84 8.00879V7.98296C89.84 6.8743 89.0707 6.13917 88.1435 6.13917C87.2162 6.13917 86.4366 6.86238 86.4366 7.98296V8.00879C86.4366 9.11545 87.2183 9.85257 88.1435 9.85257C89.0686 9.85257 89.84 9.11545 89.84 8.00879Z" fill="white"/>
<path d="M92.4429 8.03674V8.01289C92.4429 6.09359 94.0583 4.53589 96.2371 4.53589C98.4159 4.53589 100 6.06776 100 7.98706V8.01289C100 9.93022 98.3826 11.4879 96.2059 11.4879C94.0292 11.4879 92.4387 9.95604 92.4387 8.03674H92.4429ZM98.052 8.03674V8.01289C98.052 7.01946 97.3098 6.1671 96.2142 6.1671C95.0811 6.1671 94.4034 7.00357 94.4034 7.98706V8.01289C94.4034 8.99639 95.1456 9.8567 96.2412 9.8567C97.3743 9.8567 98.052 9.02222 98.052 8.03674Z" fill="white"/>
<path d="M31.844 18.6285V18.6047C31.844 16.6993 33.266 15.1277 35.2993 15.1277C37.6319 15.1277 38.7026 16.8602 38.7026 18.7537C38.7026 18.9047 38.6881 19.0776 38.6756 19.2524H33.8128C34.0082 20.1127 34.6444 20.5618 35.5197 20.5618C36.185 20.5618 36.6673 20.3631 37.2162 19.8763L38.3492 20.8359C38.0079 21.2418 37.572 21.5657 37.0764 21.782C36.5808 21.9983 36.0392 22.1009 35.4947 22.0817C33.3949 22.0817 31.844 20.673 31.844 18.6285ZM36.7712 18.0682C36.6548 17.2218 36.133 16.6476 35.2993 16.6476C34.4656 16.6476 33.9438 17.2099 33.7858 18.0682H36.7712Z" fill="white"/>
<path d="M39.393 15.2529H41.3722V16.2006C41.8296 15.6383 42.4117 15.1277 43.42 15.1277C44.919 15.1277 45.7921 16.0754 45.7921 17.6093V21.9327H43.8108V18.2054C43.8108 17.3093 43.368 16.8483 42.6113 16.8483C41.8545 16.8483 41.3639 17.3093 41.3639 18.2054V21.9327H39.3826L39.393 15.2529Z" fill="white"/>
<path d="M49.896 23.246L50.5738 21.8254C51.2869 22.2369 52.1046 22.4534 52.9376 22.4513C54.2952 22.4513 54.9334 21.8274 54.9334 20.6314V20.3075C54.3472 20.981 53.7068 21.3903 52.6465 21.3903C51.0166 21.3903 49.5447 20.2578 49.5447 18.2769V18.2511C49.5447 16.2643 51.0436 15.1357 52.6465 15.1357C53.7297 15.1357 54.368 15.5728 54.9023 16.1292V15.2569H56.8856V20.4227C56.8856 21.6148 56.5842 22.491 55.9979 23.0513C55.3472 23.6732 54.3347 23.9474 52.9854 23.9474C51.9114 23.9562 50.8512 23.7155 49.896 23.246ZM54.9334 18.2789V18.2531C54.9334 17.3431 54.1892 16.7093 53.2245 16.7093C52.2599 16.7093 51.5301 17.3431 51.5301 18.2531V18.2789C51.5301 19.2008 52.2599 19.8227 53.2245 19.8227C54.1892 19.8227 54.9334 19.1889 54.9334 18.2789Z" fill="white"/>
<path d="M57.8794 15.253H59.8607V16.5981C60.2765 15.6762 60.9168 15.0782 62.0915 15.1279V17.1147H61.9875C60.6694 17.1147 59.8607 17.8736 59.8607 19.469V21.9366H57.8794V15.253Z" fill="white"/>
<path d="M62.4949 19.5762V15.2529H64.4762V18.9782C64.4762 19.8762 64.919 20.3372 65.6757 20.3372C66.4325 20.3372 66.9231 19.8762 66.9231 18.9782V15.2529H68.9044V21.9326H66.9231V20.9849C66.4678 21.5452 65.8836 22.0558 64.8753 22.0558C63.3764 22.0558 62.5032 21.1081 62.5032 19.5762" fill="white"/>
<path d="M69.8877 15.253H71.869V16.2127C72.108 15.8724 72.4325 15.5948 72.8128 15.4053C73.193 15.2158 73.6169 15.1204 74.0457 15.1278C75.6756 15.1278 77.2266 16.3498 77.2266 18.581V18.6049C77.2266 20.8362 75.7027 22.0561 74.0457 22.0561C73.627 22.0642 73.212 21.9785 72.8341 21.806C72.4562 21.6335 72.1257 21.379 71.869 21.0627V23.9277H69.8877V15.253ZM75.2453 18.6049V18.581C75.2453 17.4704 74.4636 16.7372 73.5384 16.7372C72.6133 16.7372 71.842 17.4704 71.842 18.581V18.6049C71.842 19.7136 72.6112 20.4487 73.5384 20.4487C74.4657 20.4487 75.2453 19.7275 75.2453 18.6049Z" fill="white"/>
<path d="M77.5654 18.6305V18.6047C77.5654 16.6854 79.1829 15.1277 81.3596 15.1277C83.5363 15.1277 85.1288 16.6615 85.1288 18.5808V18.6047C85.1288 20.524 83.5114 22.0817 81.3346 22.0817C79.1579 22.0817 77.5654 20.5478 77.5654 18.6305ZM83.1787 18.6305V18.6047C83.1787 17.6112 82.4344 16.7609 81.3409 16.7609C80.2058 16.7609 79.528 17.5954 79.528 18.5808V18.6047C79.528 19.5981 80.2702 20.4485 81.3658 20.4485C82.501 20.4485 83.1787 19.614 83.1787 18.6305Z" fill="white"/>
<path d="M19.1122 2.05225H7.70475C7.12055 4.63515 5.55506 6.28225 2.28271 6.97963C2.44488 10.8679 3.41577 14.8933 5.11431 18.0802C7.07065 21.7519 9.8586 24.5354 13.4095 26.3673C16.9605 24.5354 19.7484 21.5989 21.7048 17.9192C23.4033 14.7403 24.3742 10.8679 24.5363 6.97963C21.2619 6.28225 19.6985 4.63912 19.1122 2.05225ZM7.44904 15.1913C5.68189 15.1913 4.39499 14.1482 4.39499 12.4931C4.41352 11.5037 4.83786 10.5608 5.57664 9.86737C6.31543 9.17396 7.30959 8.78552 8.34509 8.78568C9.59249 8.78568 10.4241 9.29034 10.9376 10.1049L9.76089 10.8997C9.38251 10.3871 8.94591 10.0513 8.16837 10.0513C6.98334 10.0513 5.88146 11.1302 5.88146 12.4474C5.87244 12.6477 5.9074 12.8476 5.98407 13.0342C6.06074 13.2209 6.17745 13.3901 6.32667 13.531C6.47588 13.6719 6.65431 13.7814 6.85048 13.8525C7.04664 13.9235 7.2562 13.9545 7.46566 13.9435C8.08936 13.9435 8.50517 13.7051 8.98334 13.3336L9.90849 14.2535C9.58557 14.5586 9.20239 14.7994 8.78124 14.9617C8.36009 15.1241 7.90936 15.2048 7.45527 15.1992L7.44904 15.1913ZM15.1018 13.8819L14.7609 15.0939H9.86692L11.607 8.90092H16.4469L16.106 10.1129H12.6819L12.3305 11.3785H15.3389L14.9958 12.5706H11.9854L11.6154 13.88L15.1018 13.8819ZM21.185 14.6151C20.4704 15.0082 19.6581 15.21 18.8336 15.1992C17.3513 15.1992 15.7879 14.3588 15.7879 12.511C15.7879 10.5818 17.501 8.79362 19.8336 8.79362C21.2037 8.79362 22.027 9.29828 22.4802 9.86454L21.4262 10.7586C21.2155 10.5256 20.9532 10.3404 20.6584 10.2163C20.3635 10.0923 20.0434 10.0325 19.7214 10.0414C19.0598 10.0513 18.4293 10.3109 17.9673 10.7636C17.5054 11.2162 17.2496 11.8251 17.2557 12.4574C17.2557 13.423 17.9979 13.9435 18.9189 13.9435C19.3186 13.9469 19.7141 13.8654 20.0769 13.7051L20.3825 12.6978H18.948L19.2806 11.5196H22.0956L21.185 14.6151Z" fill="white"/>
</svg>
