<svg width="159" height="40" viewBox="0 0 159 40" fill="none" xmlns="http://www.w3.org/2000/svg">
<path d="M5.05695 18.2503C3.52113 17.4655 2.2352 16.2672 1.34427 14.7904C0.463764 13.2546 0.000488281 11.5151 0.000488281 9.74482C0.000488281 7.97451 0.463764 6.23502 1.34427 4.69922C2.2352 3.22246 3.52113 2.0241 5.05695 1.23937C6.7036 0.39851 8.53109 -0.0263781 10.3798 0.0018157C12.0442 -0.0275294 13.6957 0.299129 15.2236 0.959921C16.609 1.57192 17.8174 2.524 18.7366 3.7278L14.7711 7.27636C13.6179 5.82145 12.2605 5.09252 10.6992 5.08956C10.1109 5.06484 9.52405 5.16511 8.97737 5.38379C8.43069 5.60246 7.93658 5.93456 7.52763 6.35817C6.75283 7.31941 6.33031 8.51685 6.33031 9.75148C6.33031 10.9861 6.75283 12.1835 7.52763 13.1448C7.9368 13.5678 8.43105 13.8992 8.97776 14.1172C9.52446 14.3351 10.1112 14.4345 10.6992 14.409C12.2605 14.409 13.6179 13.6815 14.7711 12.2266L18.7366 15.7752C17.8174 16.979 16.609 17.931 15.2236 18.543C13.6957 19.2038 12.0442 19.5305 10.3798 19.5011C8.52997 19.5252 6.70242 19.0957 5.05695 18.2503Z" fill="#364B4C"/>
<path d="M27.2042 14.3779H25.5009V19.062H19.22V0.432099H28.189C29.7325 0.395945 31.2664 0.684584 32.6912 1.27931C33.8958 1.78631 34.9236 2.63819 35.6454 3.72782C36.3511 4.84198 36.7121 6.1397 36.6833 7.45824C36.7168 8.6802 36.4097 9.88738 35.7962 10.9447C35.166 11.9632 34.2622 12.7839 33.188 13.3134L37.1003 19.0798H30.3757L27.2042 14.3779ZM29.7104 5.84808C29.162 5.42833 28.4785 5.2247 27.7897 5.27588H25.5009V9.6406H27.8119C28.5006 9.69178 29.1842 9.48815 29.7326 9.0684C30.1424 8.63243 30.3705 8.05659 30.3705 7.45824C30.3705 6.85989 30.1424 6.28406 29.7326 5.84808H29.7104Z" fill="#364B4C"/>
<path d="M53.2146 14.3247V19.062H37.7207V0.432098H52.8686V5.17385H43.8952V7.35622H51.7641V11.8585H43.8952V14.307L53.2146 14.3247Z" fill="#364B4C"/>
<path d="M58.6173 18.2503C57.0814 17.4656 55.7955 16.2672 54.9046 14.7905C54.0241 13.2547 53.5608 11.5152 53.5608 9.74486C53.5608 7.97455 54.0241 6.23506 54.9046 4.69926C55.7955 3.2225 57.0814 2.02414 58.6173 1.23941C60.2638 0.398377 62.0914 -0.026521 63.9401 0.00185325C65.6059 -0.0270324 67.2587 0.299594 68.7883 0.959959C70.1738 1.57196 71.3822 2.52404 72.3014 3.72784L68.3359 7.27639C67.1767 5.82149 65.8179 5.09256 64.2595 5.0896C63.6719 5.06522 63.0858 5.16568 62.5399 5.38435C61.994 5.60302 61.5006 5.93494 61.0924 6.35821C60.3176 7.31945 59.895 8.51689 59.895 9.75151C59.895 10.9861 60.3176 12.1836 61.0924 13.1448C61.501 13.5673 61.9946 13.8984 62.5405 14.1163C63.0864 14.3342 63.6722 14.4339 64.2595 14.409C65.8208 14.409 67.1796 13.6815 68.3359 12.2266L72.3014 15.7752C71.3822 16.979 70.1738 17.9311 68.7883 18.5431C67.2587 19.2034 65.6059 19.5301 63.9401 19.5012C62.0903 19.5254 60.2627 19.096 58.6173 18.2503Z" fill="#364B4C"/>
<path d="M72.7808 0.427704H79.0617V19.0576H72.7808V0.427704Z" fill="#364B4C"/>
<path d="M96.2593 14.3247V19.062H80.7654V0.432098H95.9133V5.17385H86.9399V7.35622H94.8221V11.8585H86.9399V14.307L96.2593 14.3247Z" fill="#364B4C"/>
<path d="M115.719 0.427704V19.0576H110.556L103.458 10.5943V19.0576H97.3372V0.427704H102.5L109.597 8.89545V0.427704H115.719Z" fill="#364B4C"/>
<path d="M117.413 0.427637H126.595C128.49 0.389372 130.369 0.775861 132.095 1.55874C133.616 2.25418 134.902 3.37787 135.794 4.79237C136.658 6.30014 137.112 8.00739 137.112 9.74482C137.112 11.4823 136.658 13.1895 135.794 14.6973C134.902 16.1118 133.616 17.2355 132.095 17.9309C130.369 18.7138 128.49 19.1003 126.595 19.062H117.413V0.427637ZM126.329 14.1783C127.519 14.236 128.683 13.8197 129.567 13.0206C130.348 12.114 130.777 10.9571 130.777 9.76035C130.777 8.56364 130.348 7.4067 129.567 6.50011C128.683 5.70096 127.519 5.28465 126.329 5.34239H123.694V14.165L126.329 14.1783Z" fill="#364B4C"/>
<path d="M142.444 18.237C140.885 17.433 139.577 16.2154 138.664 14.7174C137.751 13.2195 137.268 11.4991 137.268 9.74482C137.268 7.99056 137.751 6.27017 138.664 4.77222C139.577 3.27427 140.885 2.0566 142.444 1.25267C144.127 0.429791 145.975 0.00204468 147.849 0.00204468C149.722 0.00204468 151.571 0.429791 153.254 1.25267C154.813 2.0566 156.121 3.27427 157.034 4.77222C157.947 6.27017 158.429 7.99056 158.429 9.74482C158.429 11.4991 157.947 13.2195 157.034 14.7174C156.121 16.2154 154.813 17.433 153.254 18.237C151.571 19.0598 149.722 19.4876 147.849 19.4876C145.975 19.4876 144.127 19.0598 142.444 18.237ZM149.962 13.8323C150.604 13.4395 151.126 12.8779 151.47 12.2088C151.838 11.4403 152.029 10.5991 152.029 9.74704C152.029 8.89496 151.838 8.05373 151.47 7.28522C151.126 6.61613 150.604 6.05453 149.962 5.66176C149.321 5.28416 148.591 5.08504 147.846 5.08504C147.102 5.08504 146.372 5.28416 145.731 5.66176C145.09 6.05481 144.57 6.61643 144.227 7.28522C143.859 8.05373 143.668 8.89496 143.668 9.74704C143.668 10.5991 143.859 11.4403 144.227 12.2088C144.57 12.8776 145.09 13.4393 145.731 13.8323C146.373 14.2072 147.103 14.4048 147.846 14.4048C148.59 14.4048 149.32 14.2072 149.962 13.8323Z" fill="#364B4C"/>
<path d="M14.2519 35.2478V39.6081H0V22.4642H13.9325V26.8245H5.68213V28.8338H12.9301V32.9945H5.68213V35.2478H14.2519Z" fill="#229865"/>
<path d="M32.1544 22.4642V39.6081H27.4038L20.8877 31.8191V39.6081H15.2544V22.4642H20.005L26.5211 30.2533V22.4642H32.1544Z" fill="#229865"/>
<path d="M51.179 30.5726H56.2002V37.8205C55.1237 38.5529 53.9316 39.0987 52.6738 39.4351C51.3916 39.8034 50.0646 39.993 48.7305 39.9985C47.0226 40.0273 45.3337 39.6374 43.8113 38.8629C42.3978 38.1394 41.2136 37.0366 40.3914 35.6781C39.5834 34.2645 39.1584 32.6644 39.1584 31.0362C39.1584 29.4079 39.5834 27.8079 40.3914 26.3942C41.2203 25.0295 42.4182 23.9269 43.8468 23.2138C45.399 22.4321 47.1169 22.0364 48.8547 22.0605C50.403 22.0358 51.9404 22.3239 53.3747 22.9077C54.6664 23.4407 55.8062 24.2849 56.6926 25.3651L52.9932 28.6254C52.5364 28.0408 51.953 27.5675 51.2869 27.2409C50.6208 26.9144 49.8893 26.7432 49.1474 26.7402C48.5898 26.7119 48.0324 26.7994 47.5102 26.9971C46.9881 27.1949 46.5125 27.4985 46.1134 27.889C45.7255 28.3099 45.4259 28.8042 45.2324 29.3429C45.0389 29.8816 44.9554 30.4536 44.9868 31.0251C44.9336 32.1664 45.3338 33.2825 46.1001 34.1301C46.4848 34.5254 46.9491 34.8346 47.4621 35.0372C47.9752 35.2398 48.5254 35.3313 49.0765 35.3055C49.7981 35.3083 50.513 35.1666 51.179 34.8886V30.5726Z" fill="#229865"/>
<path d="M64.7968 35.2966H63.231V39.6081H57.4646V22.4642H65.715C67.1343 22.4321 68.5445 22.6996 69.8535 23.2493C70.6466 23.6187 71.3547 24.1483 71.9333 24.8046C72.5119 25.461 72.9484 26.2299 73.2154 27.0631C73.4825 27.8963 73.5742 28.7757 73.485 29.6461C73.3957 30.5165 73.1274 31.359 72.6968 32.1207C72.1168 33.0572 71.2853 33.8118 70.2971 34.2986L73.8944 39.5904H67.7332L64.7968 35.2966ZM67.0989 27.4499C66.5933 27.0603 65.961 26.8722 65.3247 26.922H63.2221V30.9319H65.3247C65.961 30.9818 66.5933 30.7937 67.0989 30.4041C67.4747 30.0022 67.6837 29.4727 67.6837 28.9225C67.6837 28.3724 67.4747 27.8428 67.0989 27.441V27.4499Z" fill="#229865"/>
<path d="M76.5291 37.8693C75.0506 36.4499 74.3113 34.4583 74.3113 31.8945V22.4642H80.0777V31.7215C80.0777 32.9812 80.301 33.8964 80.7475 34.4672C80.9965 34.7345 81.2979 34.9477 81.633 35.0934C81.968 35.2392 82.3294 35.3144 82.6948 35.3144C83.0601 35.3144 83.4215 35.2392 83.7565 35.0934C84.0916 34.9477 84.393 34.7345 84.642 34.4672C85.0885 33.8964 85.3133 32.9812 85.3163 31.7215V22.4642H90.9984V31.8945C90.9984 34.4583 90.2591 36.4499 88.7805 37.8693C87.302 39.2888 85.2527 39.9985 82.6327 39.9985C80.0333 39.9985 77.9988 39.2888 76.5291 37.8693Z" fill="#229865"/>
<path d="M104.837 23.2493C105.955 23.7105 106.905 24.5016 107.561 25.5168C108.217 26.532 108.548 27.7232 108.51 28.9314C108.536 30.1438 108.203 31.3369 107.552 32.3602C106.89 33.3632 105.945 34.1474 104.837 34.6135C103.528 35.1615 102.118 35.4275 100.699 35.3942H98.2237V39.6081H92.4573V22.4642H100.712C102.127 22.434 103.532 22.7014 104.837 23.2493ZM102.092 30.4129C102.47 30.0126 102.681 29.4825 102.681 28.9314C102.681 28.3803 102.47 27.8502 102.092 27.4499C101.586 27.0599 100.954 26.8717 100.317 26.922H98.2104V30.9319H100.317C100.953 30.9847 101.585 30.7998 102.092 30.4129Z" fill="#229865"/>
<path d="M113.421 38.8497C111.986 38.1105 110.783 36.9906 109.943 35.6127C109.103 34.2348 108.658 32.6522 108.658 31.0384C108.658 29.4246 109.103 27.842 109.943 26.4641C110.783 25.0862 111.986 23.9663 113.421 23.2271C114.969 22.4685 116.669 22.074 118.393 22.074C120.117 22.074 121.818 22.4685 123.366 23.2271C124.799 23.9674 126.001 25.0877 126.84 26.4654C127.679 27.8432 128.123 29.4252 128.123 31.0384C128.123 32.6515 127.679 34.2336 126.84 35.6113C126.001 36.9891 124.799 38.1094 123.366 38.8497C121.817 39.6057 120.116 39.9987 118.393 39.9987C116.67 39.9987 114.969 39.6057 113.421 38.8497ZM120.34 34.7954C120.931 34.4352 121.411 33.9176 121.724 33.3006C122.063 32.5938 122.239 31.82 122.239 31.0362C122.239 30.2524 122.063 29.4785 121.724 28.7717C121.409 28.1557 120.93 27.6384 120.34 27.2769C119.749 26.9342 119.077 26.7538 118.393 26.7538C117.709 26.7538 117.038 26.9342 116.446 27.2769C115.858 27.6409 115.38 28.1575 115.062 28.7717C114.723 29.4785 114.547 30.2524 114.547 31.0362C114.547 31.82 114.723 32.5938 115.062 33.3006C115.378 33.9158 115.857 34.4327 116.446 34.7954C117.037 35.1412 117.709 35.3234 118.393 35.3234C119.078 35.3234 119.75 35.1412 120.34 34.7954Z" fill="#229865"/>
</svg>
